<svg viewBox="0 0 540 540" xmlns="http://www.w3.org/2000/svg"><style>@media (prefers-color-scheme: dark) { path { fill: #fff } }</style><path d="m46.428 286.39c51.251-4.3 88.154-18.772 115.56-35.163-0.143 2.275-0.215 4.563-0.215 6.869-0 59.732 48.494 108.23 108.23 108.23 18.445 0 35.819-4.624 51.023-12.775 1.301-0.536 2.529-1.209 3.676-1.961 0.534-0.35 1.065-0.703 1.593-1.058 5.3-3.236 10.3-6.915 14.949-10.986 35.006-27.564 64.212-60.044 151.08-53.296l47.675 5.527c-3.094 26.922-10.128 52.653-20.504 76.588l-57.333-24.793-24.114 41.767 50.081 37.212c-15.855 21.293-34.752 40.191-56.05 56.05l-37.212-50.081-41.767 24.114 24.793 57.333c-23.946 10.38-49.674 17.412-76.587 20.504l-7.193-62.031h-48.228l-7.193 62.031c-26.921-3.094-52.652-10.129-76.587-20.504l24.793-57.333-41.767-24.114-37.212 50.081c-21.294-15.855-40.191-34.752-56.05-56.05l50.081-37.212-24.114-41.767-57.333 24.793c-10.38-23.947-17.412-49.674-20.504-76.588l46.428-5.383zm223.57-102.75c41.363 0 74.945 33.582 74.945 74.945s-33.582 74.944-74.945 74.944-74.945-33.581-74.945-74.944 33.582-74.945 74.945-74.945zm-209.44 66.4v-240.51h322.18l95.255 88.936v152.42c-46.028-1.364-76.443 7.56-100.59 20.591 0.541-4.383 0.82-8.846 0.82-13.374 0-59.732-48.494-108.23-108.23-108.23-33.02-0-62.605 14.819-82.46 38.161-22.585 20.846-58.632 52.184-126.98 62.008zm386.71-151.58-64.516-59.522 0.181 59.522h64.335z"/></svg>